<svg width="474" height="458" viewBox="0 0 474 458" fill="none" xmlns="http://www.w3.org/2000/svg">
<g clip-path="url(#clip0_134_82)">
<path d="M432.447 457.543V411.612C432.447 411.612 450.36 444.175 432.447 457.543Z" fill="#F1F1F1"/>
<path d="M433.553 457.535L399.694 426.474C399.694 426.474 435.813 435.309 433.553 457.535Z" fill="#F1F1F1"/>
<path d="M314.128 202.662L134.45 307.601C133.821 307.967 133.072 308.07 132.368 307.885C131.664 307.7 131.062 307.244 130.694 306.617L15.1489 109.067C14.7823 108.438 14.6802 107.69 14.8648 106.987C15.0495 106.283 15.5059 105.681 16.1339 105.314L195.812 0.374366C196.441 0.00804242 197.19 -0.0940566 197.894 0.0904674C198.598 0.274991 199.2 0.731071 199.568 1.35865L315.113 198.909C315.48 199.537 315.582 200.285 315.397 200.989C315.213 201.692 314.756 202.294 314.128 202.662Z" fill="white"/>
<path d="M314.128 202.662L134.45 307.601C133.821 307.967 133.072 308.07 132.368 307.885C131.664 307.7 131.062 307.244 130.694 306.617L15.1489 109.067C14.7823 108.438 14.6802 107.69 14.8648 106.987C15.0495 106.283 15.5059 105.681 16.1339 105.314L195.812 0.374366C196.441 0.00804242 197.19 -0.0940566 197.894 0.0904674C198.598 0.274991 199.2 0.731071 199.568 1.35865L315.113 198.909C315.48 199.537 315.582 200.285 315.397 200.989C315.213 201.692 314.756 202.294 314.128 202.662ZM16.6881 106.261C16.3113 106.482 16.0374 106.843 15.9266 107.265C15.8158 107.687 15.8771 108.136 16.0971 108.513L131.642 306.063C131.863 306.44 132.224 306.713 132.647 306.824C133.069 306.935 133.518 306.873 133.896 306.654L313.574 201.714C313.951 201.494 314.225 201.133 314.336 200.71C314.446 200.288 314.385 199.839 314.165 199.462L198.62 1.91239C198.399 1.53582 198.038 1.26216 197.616 1.15144C197.193 1.04073 196.744 1.102 196.367 1.32181L16.6881 106.261Z" fill="#3F3D56"/>
<path d="M132.186 125.934L87.6223 151.962C86.9934 152.328 86.2448 152.43 85.5407 152.245C84.8366 152.061 84.2345 151.605 83.8664 150.977L57.8203 106.446C57.4537 105.817 57.3516 105.069 57.5362 104.365C57.7209 103.662 58.1773 103.06 58.8053 102.692L103.369 76.6653C103.998 76.2989 104.747 76.1968 105.451 76.3814C106.155 76.5659 106.757 77.022 107.125 77.6495L133.171 122.181C133.538 122.81 133.64 123.558 133.455 124.261C133.271 124.965 132.814 125.567 132.186 125.934ZM59.3595 103.64C58.9827 103.861 58.7088 104.222 58.598 104.644C58.4872 105.066 58.5485 105.515 58.7685 105.892L84.8146 150.423C85.0354 150.8 85.3967 151.074 85.8192 151.184C86.2416 151.295 86.6908 151.234 87.0681 151.014L131.632 124.987C132.009 124.766 132.283 124.405 132.394 123.983C132.505 123.561 132.443 123.112 132.223 122.735L106.177 78.2033C105.956 77.8268 105.595 77.5531 105.173 77.4424C104.75 77.3317 104.301 77.3929 103.924 77.6127L59.3595 103.64Z" fill="#F2F2F2"/>
<path d="M122.572 138.858L78.0081 164.885C77.4422 165.215 76.7684 165.307 76.1347 165.141C75.501 164.975 74.9591 164.564 74.6279 164L48.5818 119.468C48.2518 118.902 48.1599 118.229 48.326 117.596C48.4922 116.963 48.903 116.421 49.4682 116.09L94.0323 90.0629C94.5983 89.7332 95.2721 89.6413 95.9058 89.8074C96.5395 89.9734 97.0814 90.3839 97.4126 90.9488L123.459 135.48C123.789 136.046 123.881 136.719 123.714 137.352C123.548 137.986 123.137 138.527 122.572 138.858Z" fill="#4F84C0"/>
<path d="M230.135 105.273L90.7541 186.677C90.1883 187.008 89.5143 187.1 88.8803 186.934C88.2464 186.768 87.7045 186.357 87.3738 185.792C87.0431 185.226 86.9507 184.553 87.117 183.919C87.2832 183.286 87.6945 182.744 88.2603 182.414L227.642 101.01C227.922 100.846 228.231 100.739 228.553 100.695C228.874 100.651 229.201 100.671 229.515 100.753C229.829 100.835 230.124 100.979 230.382 101.175C230.641 101.371 230.858 101.616 231.022 101.896C231.186 102.176 231.293 102.485 231.337 102.806C231.381 103.127 231.361 103.454 231.279 103.768C231.196 104.082 231.053 104.376 230.857 104.634C230.661 104.893 230.416 105.11 230.135 105.273Z" fill="#CCCCCC"/>
<path d="M205.065 139.618L99.3439 201.363C99.0638 201.527 98.7541 201.634 98.4326 201.678C98.1111 201.722 97.7841 201.702 97.4702 201.62C96.8363 201.454 96.2943 201.043 95.9636 200.478C95.6329 199.912 95.5406 199.239 95.7068 198.605C95.8731 197.972 96.2843 197.43 96.8501 197.1L202.571 135.355C202.851 135.191 203.161 135.084 203.483 135.04C203.804 134.996 204.131 135.016 204.445 135.098C204.759 135.18 205.053 135.323 205.312 135.519C205.57 135.715 205.788 135.96 205.952 136.24C206.115 136.52 206.222 136.83 206.266 137.151C206.31 137.472 206.291 137.799 206.208 138.113C206.126 138.426 205.983 138.721 205.787 138.979C205.59 139.237 205.345 139.455 205.065 139.618Z" fill="#CCCCCC"/>
<path d="M198.074 51.5437L136.443 87.5388C135.877 87.8692 135.203 87.9615 134.569 87.7954C133.935 87.6293 133.393 87.2183 133.062 86.6529C132.732 86.0875 132.639 85.414 132.805 84.7805C132.972 84.1471 133.383 83.6055 133.949 83.2751L195.58 47.2801C196.146 46.9496 196.82 46.8573 197.454 47.0234C197.768 47.1057 198.062 47.2489 198.321 47.445C198.579 47.641 198.796 47.886 198.96 48.1659C199.124 48.4459 199.231 48.7553 199.275 49.0766C199.319 49.3979 199.299 49.7246 199.217 50.0383C199.135 50.352 198.991 50.6463 198.795 50.9046C198.599 51.163 198.354 51.3801 198.074 51.5437Z" fill="#CCCCCC"/>
<path d="M191.282 75.2129L145.032 102.225C144.752 102.388 144.442 102.495 144.121 102.539C143.799 102.583 143.472 102.564 143.158 102.481C142.844 102.399 142.55 102.256 142.291 102.06C142.033 101.864 141.815 101.619 141.652 101.339C141.488 101.059 141.381 100.75 141.337 100.428C141.293 100.107 141.312 99.7802 141.395 99.4665C141.477 99.1529 141.62 98.8585 141.817 98.6002C142.013 98.3419 142.258 98.1247 142.538 97.9611L188.788 70.9492C189.354 70.6188 190.028 70.5264 190.662 70.6926C191.296 70.8587 191.838 71.2697 192.168 71.8351C192.499 72.4005 192.592 73.074 192.425 73.7074C192.259 74.3409 191.848 74.8824 191.282 75.2129Z" fill="#CCCCCC"/>
<path d="M247.315 134.645L107.934 216.049C107.368 216.38 106.694 216.472 106.06 216.306C105.426 216.14 104.884 215.729 104.553 215.164C104.223 214.598 104.13 213.925 104.297 213.291C104.463 212.658 104.874 212.116 105.44 211.786L244.821 130.382C245.387 130.051 246.061 129.959 246.695 130.125C247.329 130.291 247.871 130.702 248.202 131.267C248.532 131.833 248.625 132.506 248.458 133.14C248.292 133.773 247.881 134.315 247.315 134.645Z" fill="#CCCCCC"/>
<path d="M222.244 168.99L116.523 230.735C116.243 230.899 115.933 231.006 115.612 231.05C115.29 231.094 114.963 231.074 114.649 230.992C114.335 230.91 114.041 230.767 113.782 230.571C113.524 230.375 113.307 230.13 113.143 229.85C112.979 229.57 112.872 229.26 112.828 228.939C112.784 228.618 112.804 228.291 112.886 227.977C112.968 227.664 113.112 227.369 113.308 227.111C113.504 226.853 113.749 226.635 114.029 226.472L219.75 164.726C220.031 164.563 220.34 164.456 220.662 164.412C220.983 164.368 221.31 164.388 221.624 164.47C221.938 164.552 222.233 164.695 222.491 164.891C222.75 165.087 222.967 165.332 223.131 165.612C223.294 165.892 223.401 166.202 223.446 166.523C223.49 166.844 223.47 167.171 223.388 167.485C223.305 167.798 223.162 168.093 222.966 168.351C222.77 168.609 222.524 168.826 222.244 168.99Z" fill="#CCCCCC"/>
<path d="M264.494 164.017L125.113 245.421C124.833 245.585 124.523 245.692 124.202 245.736C123.88 245.78 123.553 245.76 123.239 245.678C122.925 245.596 122.631 245.453 122.372 245.256C122.114 245.06 121.896 244.815 121.733 244.536C121.569 244.256 121.462 243.946 121.418 243.625C121.374 243.304 121.394 242.977 121.476 242.663C121.558 242.349 121.702 242.055 121.898 241.797C122.094 241.538 122.339 241.321 122.619 241.158L262 159.754C262.281 159.59 262.59 159.483 262.912 159.439C263.233 159.395 263.56 159.415 263.874 159.497C264.188 159.579 264.483 159.722 264.741 159.918C265 160.114 265.217 160.359 265.381 160.639C265.544 160.919 265.651 161.229 265.695 161.55C265.74 161.871 265.72 162.198 265.638 162.512C265.555 162.825 265.412 163.12 265.216 163.378C265.02 163.636 264.774 163.854 264.494 164.017Z" fill="#CCCCCC"/>
<path d="M273.084 178.703L133.703 260.107C133.423 260.271 133.113 260.378 132.791 260.422C132.47 260.466 132.143 260.446 131.829 260.364C131.515 260.282 131.221 260.139 130.962 259.942C130.704 259.746 130.486 259.501 130.323 259.221C130.159 258.942 130.052 258.632 130.008 258.311C129.964 257.99 129.983 257.663 130.066 257.349C130.148 257.035 130.291 256.741 130.488 256.483C130.684 256.224 130.929 256.007 131.209 255.844L270.59 174.44C270.87 174.276 271.18 174.169 271.502 174.125C271.823 174.081 272.15 174.101 272.464 174.183C272.778 174.265 273.072 174.408 273.331 174.604C273.589 174.8 273.807 175.045 273.971 175.325C274.134 175.605 274.241 175.915 274.285 176.236C274.329 176.557 274.31 176.884 274.227 177.198C274.145 177.511 274.002 177.806 273.806 178.064C273.609 178.322 273.364 178.54 273.084 178.703Z" fill="#CCCCCC"/>
<path d="M228.011 235.874C229.947 233.595 231.691 231.159 233.222 228.591C234.595 226.274 235.943 223.797 236.246 221.08C236.401 219.923 236.28 218.746 235.894 217.644C235.507 216.543 234.866 215.548 234.023 214.74C233.207 213.989 232.174 213.517 231.072 213.392C229.97 213.266 228.857 213.495 227.894 214.044C226.919 214.603 226.114 215.415 225.563 216.394C225.012 217.373 224.737 218.483 224.766 219.606C224.845 220.842 225.202 222.045 225.811 223.123C226.42 224.202 227.265 225.13 228.283 225.837C232.403 228.82 238.837 228.664 243.228 226.394C248.174 223.837 250.729 217.149 246.844 212.57C246.035 211.618 244.69 212.682 244.893 213.709C245.15 215.097 245.927 216.334 247.066 217.168C248.205 218.003 249.62 218.371 251.021 218.198C252.423 218.025 253.705 217.323 254.607 216.237C255.508 215.151 255.961 213.762 255.872 212.353L254.125 213.373C256.267 214.321 258.62 214.689 260.949 214.439C263.278 214.19 265.5 213.332 267.392 211.951C268.327 211.272 269.163 210.465 269.874 209.554C270.729 208.439 272.165 207.719 273.328 206.916L281.709 201.129C282.942 200.278 281.77 198.249 280.527 199.108L272.937 204.348C271.672 205.222 270.399 206.084 269.141 206.969C268.243 207.601 267.69 208.622 266.872 209.373C265.324 210.764 263.412 211.687 261.358 212.035C259.305 212.382 257.195 212.138 255.275 211.333C255.096 211.237 254.896 211.188 254.693 211.192C254.49 211.196 254.291 211.251 254.115 211.354C253.94 211.456 253.794 211.602 253.691 211.777C253.588 211.952 253.532 212.15 253.528 212.353C253.621 213.194 253.377 214.036 252.851 214.698C252.324 215.36 251.558 215.787 250.717 215.887C249.877 215.986 249.032 215.75 248.365 215.229C247.698 214.709 247.265 213.946 247.158 213.107L245.207 214.247C247.714 217.2 246.045 221.731 243.157 223.712C239.927 225.929 235.155 226.314 231.515 224.936C230.622 224.629 229.802 224.141 229.106 223.503C228.41 222.865 227.854 222.091 227.471 221.228C227.116 220.449 227.015 219.578 227.181 218.738C227.348 217.898 227.774 217.132 228.4 216.547C228.942 216.011 229.671 215.708 230.433 215.7C231.195 215.691 231.93 215.98 232.483 216.503C233.086 217.118 233.528 217.872 233.771 218.697C234.014 219.523 234.05 220.396 233.875 221.239C233.5 223.585 232.202 225.748 230.995 227.752C229.616 230.035 228.058 232.204 226.333 234.239C225.367 235.382 227.034 237.029 228.011 235.874Z" fill="#4F84C0"/>
<path d="M248.814 291.545C249.016 291.753 249.201 291.976 249.368 292.212L275.322 291.578L278.35 286.049L287.298 289.525L282.889 299.833C282.533 300.666 281.916 301.361 281.131 301.813C280.346 302.266 279.436 302.452 278.536 302.343L249.212 298.803C248.52 299.679 247.578 300.322 246.511 300.65C245.445 300.977 244.303 300.971 243.24 300.634C242.176 300.298 241.24 299.645 240.556 298.764C239.873 297.882 239.474 296.814 239.413 295.7C239.351 294.587 239.631 293.481 240.214 292.53C240.797 291.58 241.656 290.829 242.677 290.378C243.697 289.927 244.831 289.797 245.927 290.005C247.024 290.214 248.03 290.751 248.814 291.545Z" fill="#FFB7B7"/>
<path d="M333.422 449.056H324.888L320.828 416.162L333.423 416.163L333.422 449.056Z" fill="#FFB7B7"/>
<path d="M335.598 457.322L308.081 457.321V456.974C308.081 454.135 309.21 451.413 311.218 449.406C313.227 447.399 315.951 446.271 318.792 446.271H318.792L335.599 446.272L335.598 457.322Z" fill="#2F2E41"/>
<path d="M255.93 448.866L248.082 445.516L257.279 413.673L268.862 418.618L255.93 448.866Z" fill="#FFB7B7"/>
<path d="M254.681 457.322L229.376 446.52L229.513 446.2C230.629 443.59 232.737 441.529 235.373 440.472C238.009 439.415 240.958 439.447 243.57 440.562L243.571 440.562L259.026 447.16L254.681 457.322Z" fill="#2F2E41"/>
<path d="M291.941 298.671L291.323 308.664L309.363 310.593L328.237 312.611L322.682 297.437L291.941 298.671Z" fill="#FFB7B7"/>
<path d="M290.755 308.792L283.748 259.974L295.894 255.997L299.461 251.108L316.822 252.134L319.371 257.839L328.628 262.21L327.205 288.612L328.243 310.697L290.755 308.792Z" fill="#2F2E41"/>
<path d="M286.345 295.71L273.99 290.77L274.042 290.551C274.095 290.329 279.354 268.371 280.052 264.843C280.779 261.166 283.437 260.15 283.55 260.109L283.632 260.078L288.521 261.565L290.669 278.426L286.345 295.71Z" fill="#2F2E41"/>
<path d="M262.286 443.085L245.839 439.714L272.125 367.235L281.121 342.513C281.121 342.513 286.827 322.691 289.405 315.021L290.961 304.728L327.789 308.802C327.789 308.802 338.075 323.897 334.951 348.501L336.364 440.978L319.918 441.821L306.142 348.553L281.965 399.682C281.965 399.682 274.344 421.5 268.892 426.23L262.286 443.085Z" fill="#2F2E41"/>
<path d="M313.02 312.234C313.31 312.228 313.6 312.244 313.887 312.282L331.068 292.832L329.069 286.854L337.703 282.661L342.271 292.9C342.64 293.727 342.73 294.652 342.528 295.535C342.327 296.418 341.844 297.211 341.153 297.797L318.617 316.878C318.789 317.979 318.621 319.107 318.136 320.112C317.651 321.116 316.871 321.948 315.9 322.499C314.93 323.049 313.815 323.292 312.703 323.193C311.592 323.095 310.536 322.661 309.678 321.948C308.819 321.236 308.198 320.28 307.896 319.206C307.595 318.132 307.628 316.992 307.991 315.938C308.354 314.883 309.029 313.964 309.928 313.302C310.826 312.641 311.905 312.268 313.02 312.234Z" fill="#FFB7B7"/>
<path d="M329.696 294.725L322.529 277.878L325.325 266.144L328.336 262.342C328.557 262.247 328.795 262.2 329.035 262.202C329.275 262.204 329.512 262.256 329.73 262.355C330.841 262.801 331.787 264.171 332.542 266.424L339.259 285.542L329.696 294.725Z" fill="#2F2E41"/>
<path d="M292.512 244.865V232.165C292.512 227.651 294.307 223.322 297.501 220.13C300.694 216.939 305.026 215.146 309.543 215.146C314.06 215.146 318.392 216.939 321.586 220.13C324.78 223.322 326.575 227.651 326.575 232.165V244.865C326.574 245.471 326.333 246.052 325.904 246.481C325.475 246.909 324.893 247.151 324.287 247.151H294.8C294.193 247.151 293.612 246.909 293.183 246.481C292.754 246.052 292.513 245.471 292.512 244.865Z" fill="#2F2E41"/>
<path d="M306.044 246.856C312.94 246.856 318.53 241.269 318.53 234.378C318.53 227.487 312.94 221.9 306.044 221.9C299.148 221.9 293.557 227.487 293.557 234.378C293.557 241.269 299.148 246.856 306.044 246.856Z" fill="#FFB7B7"/>
<path d="M288.483 233.181C288.487 229.611 289.908 226.189 292.433 223.666C294.959 221.142 298.383 219.722 301.955 219.718H304.497C308.069 219.722 311.494 221.142 314.019 223.666C316.545 226.189 317.966 229.611 317.97 233.181V233.435H312.598L310.765 228.308L310.399 233.435H307.623L306.698 230.848L306.513 233.435H288.483L288.483 233.181Z" fill="#2F2E41"/>
<path d="M304.815 248.579C304.563 248.238 304.412 247.833 304.38 247.41C304.349 246.987 304.437 246.563 304.636 246.188C307.329 241.068 311.101 231.608 306.095 225.773L305.735 225.354H320.269V247.159L307.066 249.486C306.932 249.51 306.797 249.522 306.661 249.522C306.301 249.522 305.945 249.437 305.624 249.273C305.303 249.109 305.026 248.871 304.815 248.579Z" fill="#2F2E41"/>
<path d="M135.277 441.871L142.989 444.625L157.291 416.209L145.908 412.144L135.277 441.871Z" fill="#9F616A"/>
<path d="M130.637 448.639L134.209 438.652L149.398 444.076C151.963 444.996 154.059 446.895 155.225 449.356C156.391 451.817 156.533 454.64 155.618 457.206L155.506 457.52L130.637 448.639Z" fill="#2F2E41"/>
<path d="M185.429 449.494L193.62 449.493L197.516 417.925L185.428 417.926L185.429 449.494Z" fill="#9F616A"/>
<path d="M183.34 446.822L199.469 446.821H199.47C200.82 446.821 202.157 447.087 203.404 447.603C204.651 448.119 205.784 448.876 206.739 449.829C207.693 450.783 208.45 451.916 208.967 453.162C209.483 454.408 209.749 455.744 209.749 457.093V457.426L183.34 457.427L183.34 446.822Z" fill="#2F2E41"/>
<path d="M166.763 247.812L170.325 240.779C170.325 240.779 183.595 244.101 184.801 251.786L166.763 247.812Z" fill="#F1F1F1"/>
<path d="M152.066 328.232L161.753 382.247L136.032 427.701L151.398 433.709L177.453 389.649L180.793 377.632L182.797 440.384L196.655 439.964L203.008 381.369L192.818 326.896L152.066 328.232Z" fill="#2F2E41"/>
<path d="M170.454 341.001C156.223 341.001 147.188 338.281 146.986 338.238L146.658 338.168L154.07 303.828L154.404 272.152C154.404 258.728 163.245 248.832 164.472 247.919C164.679 247.104 165.061 246.344 165.591 245.692C166.122 245.04 166.789 244.512 167.546 244.144C170.495 242.807 174.098 244.411 174.25 244.48L185.066 248.533L185.117 248.683C185.248 249.067 199.494 295.803 199.494 295.803C199.494 295.803 198.632 336.638 198.332 337.976C198.332 337.976 178.361 341.001 170.454 341.001Z" fill="#3F3D56"/>
<path d="M181.389 238.564C189.463 238.564 196.008 232.024 196.008 223.956C196.008 215.888 189.463 209.347 181.389 209.347C173.315 209.347 166.77 215.888 166.77 223.956C166.77 232.024 173.315 238.564 181.389 238.564Z" fill="#9F616A"/>
<path opacity="0.2" d="M165.088 274.742L190.665 310.401L194.441 293.749L165.088 274.742Z" fill="black"/>
<path d="M245.275 299.005C244.556 299.574 243.72 299.978 242.828 300.189C241.935 300.4 241.007 300.413 240.109 300.227C239.211 300.041 238.365 299.66 237.63 299.112C236.895 298.564 236.289 297.861 235.855 297.054L213.841 300.575L218.611 290.024L238.784 288.298C240.19 287.66 241.781 287.559 243.257 288.015C244.732 288.47 245.989 289.451 246.789 290.771C247.589 292.09 247.877 293.658 247.598 295.175C247.319 296.693 246.492 298.056 245.275 299.005Z" fill="#9F616A"/>
<path d="M219.744 289.424L227.654 288.648L229.846 299.675L219.893 299.85L219.744 289.424Z" fill="#F1F1F1"/>
<path d="M226.228 303.517L187.489 300.07L167.928 268.983L167.867 268.709C167.312 266.169 167.701 263.515 168.961 261.241C170.221 258.967 172.266 257.229 174.715 256.351C177.163 255.473 179.848 255.516 182.267 256.472C184.686 257.427 186.674 259.23 187.861 261.543L199.344 283.925L222.518 287.425L226.228 303.517Z" fill="#3F3D56"/>
<path d="M168.937 236.639L181.071 237.075C181.81 237.101 183.818 229.125 184.08 227.47C184.288 226.393 184.881 225.428 185.749 224.756C186.616 224.083 187.699 223.749 188.795 223.817C189.703 223.902 191.993 222.207 194.357 220.199C198.844 216.387 198.611 209.227 193.681 206.006C193.547 205.918 193.415 205.838 193.285 205.765C190.175 204.026 186.538 203.442 182.975 203.397C179.744 203.357 176.423 203.763 173.577 205.291C168.475 208.03 165.76 214.015 165.522 219.797C165.283 225.58 167.138 231.234 169.243 236.625" fill="#2F2E41"/>
<path d="M473.112 458H0.635389C0.466873 458 0.305259 457.933 0.186101 457.814C0.0669421 457.695 0 457.534 0 457.365C0 457.197 0.0669421 457.035 0.186101 456.916C0.305259 456.797 0.466873 456.73 0.635389 456.73H473.365C473.533 456.73 473.695 456.797 473.814 456.916C473.933 457.035 474 457.197 474 457.365C474 457.716 473.463 458 473.112 458Z" fill="#CBCBCB"/>
</g>
<defs>
<clipPath id="clip0_134_82">
<rect width="474" height="458" fill="white"/>
</clipPath>
</defs>
</svg>
